<?xml version="1.0" standalone="no"?><!DOCTYPE svg PUBLIC "-//W3C//DTD SVG 1.1//EN" "http://www.w3.org/Graphics/SVG/1.1/DTD/svg11.dtd"><svg t="1583984875036" class="icon" viewBox="0 0 1024 1024" version="1.1" xmlns="http://www.w3.org/2000/svg" p-id="11443" xmlns:xlink="http://www.w3.org/1999/xlink" width="200" height="200"><defs><style type="text/css"></style></defs><path d="M512 512m-512 0a512 512 0 1 0 1024 0 512 512 0 1 0-1024 0Z" fill="#FFFFFF" p-id="11444"></path><path d="M123.733333 467.157333l76.8-76.8V279.424c0-38.4 34.133333-68.266667 72.533334-68.266667h110.933333L460.8 134.357333c29.866667-25.6 72.533333-25.6 102.4 0l76.8 76.8h110.933333c38.4 0 72.533333 29.866667 72.533334 68.266667v106.666667l76.8 76.8c29.866667 25.6 29.866667 72.533333 0 98.133333l-76.8 76.8v106.666667c0 38.4-29.866667 68.266667-72.533334 68.266666h-110.933333l-76.8 76.8c-29.866667 34.133333-76.8 34.133333-102.4 8.533334l-76.8-76.8H273.066667c-38.4 0-72.533333-29.866667-72.533334-68.266667v-106.666667L123.733333 569.557333c-29.866667-29.866667-29.866667-76.8 0-102.4" fill="#F7B400" p-id="11445"></path><path d="M388.266667 588.8c8.533333-59.733333 59.733333-106.666667 123.733333-106.666667s115.2 46.933333 119.466667 106.666667c51.2 0 89.6 42.666667 89.6 93.866667 0 51.2-42.666667 93.866667-93.866667 93.866666H392.533333C341.333333 776.533333 298.666667 733.866667 298.666667 682.666667c0-51.2 38.4-93.866667 89.6-93.866667" fill="#FEFEFE" p-id="11446"></path><path d="M413.866667 477.866667c0 17.066667-12.8 29.866667-29.866667 29.866666-17.066667 0-29.866667-12.8-29.866667-29.866666 0-17.066667 12.8-29.866667 29.866667-29.866667 17.066667 0 29.866667 17.066667 29.866667 29.866667M665.6 477.866667c0 17.066667-12.8 29.866667-29.866667 29.866666-17.066667 0-29.866667-12.8-29.866666-29.866666 0-17.066667 12.8-29.866667 29.866666-29.866667 17.066667 0 29.866667 17.066667 29.866667 29.866667M435.2 588.8h145.066667c12.8 0 25.6 17.066667 4.266666 34.133333l-42.666666 34.133334s-12.8 8.533333-29.866667 8.533333c-17.066667 0-29.866667-8.533333-29.866667-8.533333l-46.933333-34.133334c-25.6-17.066667-12.8-34.133333 0-34.133333" fill="#231916" p-id="11447"></path></svg>